# xmcd
#
# Track frame offsets:
#       150
#       13870
#       24937
#       36735
#       49765
#       62380
#       75150
#       86335
#       102335
#       115945
#       129760
#       142827
#       156900
#       171842
#
# Disc length: 2421 seconds
#
# Revision: 1
# Processed by: cddbd v1.5.1PL0 Copyright (c) Steve Scherf et al.
# Submitted via: MusiCat 1.1
#
DISCID=a309730e
DTITLE=Orquestra club da valsa - Valsas Brasileiras
DYEAR=1900
DGENRE=
TTITLE0=Tardes em lindóia
TTITLE1=Rapaziada do brás
TTITLE2=Club XV
TTITLE3=Subindo ao céu
TTITLE4=Branca
TTITLE5=Eu sonhei que tu estavas tão linda
TTITLE6=Saudades de ouro preto
TTITLE7=Abismo de rosas
TTITLE8=Velho realejo
TTITLE9=Saudades de matão
TTITLE10=Aurora
TTITLE11=Bodas de prata
TTITLE12=Valsa da meia noite
TTITLE13=Raquel
EXTD=\n\n
EXTT0=
EXTT1=
EXTT2=
EXTT3=
EXTT4=
EXTT5=
EXTT6=
EXTT7=
EXTT8=
EXTT9=
EXTT10=
EXTT11=
EXTT12=
EXTT13=
PLAYORDER=
